<svg width="59" height="62" viewBox="0 0 59 62" fill="none" xmlns="http://www.w3.org/2000/svg">
<g clip-path="url(#clip0_9602_3232)">
<path d="M45.2756 20.4062V13.0227C47.2579 12.0923 48.5296 10.0971 48.5429 7.89961V7.7288C48.5429 4.58519 46.0031 2.03638 42.8721 2.03638H42.7068C39.5758 2.03638 37.0373 4.58519 37.0373 7.7288V7.89961C37.0455 8.97936 37.3594 10.0345 37.9425 10.9418C38.5255 11.8492 39.3535 12.5713 40.3299 13.0239V20.4062C37.5392 20.8338 34.9029 22.0029 32.7058 23.7788L12.5336 8.01469C12.6772 7.495 12.7544 6.95713 12.7616 6.41927V6.40594C12.7616 2.86862 9.90452 0 6.3802 0C2.8571 0 0 2.86862 0 6.40594C0 9.94084 2.85227 12.8082 6.37176 12.8131C7.47816 12.8034 8.56284 12.4993 9.51601 11.9372L29.3781 27.4518C27.6354 30.0967 26.7056 33.1977 26.7044 36.369C26.7044 39.687 27.7252 42.9312 29.6219 45.646L23.5819 51.7103C23.095 51.5654 22.59 51.4916 22.0822 51.491C19.1913 51.491 16.8482 53.8436 16.8482 56.7449C16.8482 59.6474 19.1913 62 22.0822 62C24.9718 62 27.3149 59.6474 27.3149 56.7449V56.7292C27.3107 56.2149 27.2286 55.7043 27.0712 55.2149L33.046 49.2111C35.8658 51.392 39.3248 52.5753 42.8842 52.5764C51.7837 52.5764 59 45.331 59 36.3956C59 28.3943 53.1724 21.5922 45.2925 20.3977L45.2756 20.4062ZM42.8154 44.6829C38.3765 44.4988 34.8703 40.8318 34.8703 36.3702C34.8703 32.0782 38.1244 28.4887 42.3787 28.0866H42.8154C47.1348 28.4173 50.4721 32.0333 50.4721 36.3823C50.4721 40.7325 47.1348 44.3485 42.8166 44.678L42.8154 44.6829Z" fill="#FF7A59"/>
</g>
<defs>
<clipPath id="clip0_9602_3232">
<rect width="59" height="62" fill="white"/>
</clipPath>
</defs>
</svg>
