<svg xmlns="http://www.w3.org/2000/svg" version="1.1" xmlns:xlink="http://www.w3.org/1999/xlink" width="512" height="512" x="0" y="0" viewBox="0 0 512 512" style="enable-background:new 0 0 512 512" xml:space="preserve" class=""><g><path d="m393.951 437.991-17.504-27.898h-59.65M393.951 74.009l-17.504 27.898h-50.453M442.429 354.513l-25.015-23.219h-47.301M452.482 157.487l-25.016 23.219h-37.569M445 256h-55.502M202.3 146.101l39.171.016 2.962 18.694a93.359 93.359 0 0 1 25.992 10.764l15.309-11.103 27.689 27.708-11.102 15.282a93.35 93.35 0 0 1 10.779 26.027l18.644 2.968-.016 39.171-18.645 2.954a93.315 93.315 0 0 1-10.799 26.018l11.09 15.29-27.708 27.689-15.303-11.117a93.37 93.37 0 0 1-25.999 10.744l-2.976 18.694-39.171-.016" style="stroke-width:22;stroke-linejoin:round;stroke-miterlimit:10;" fill="none" stroke="#00ac8d" stroke-width="22" stroke-linejoin="round" stroke-miterlimit="10" data-original="#33cccc" opacity="1" class=""></path><path d="M202.358 289.01a38.086 38.086 0 0 0 19.361 5.262c21.137 0 38.272-17.135 38.272-38.272 0-21.137-17.135-38.272-38.272-38.272a38.086 38.086 0 0 0-19.361 5.262" style="stroke-width:22;stroke-linejoin:round;stroke-miterlimit:10;" fill="none" stroke="#00ac8d" stroke-width="22" stroke-linejoin="round" stroke-miterlimit="10" data-original="#33cccc" opacity="1" class=""></path><path d="M408.83 433.707c-15.464 0-28 12.536-28 28s12.536 28 28 28 28-12.536 28-28-12.536-28-28-28zM462.947 345.558c-15.464 0-28 12.536-28 28s12.536 28 28 28 28-12.536 28-28-12.536-28-28-28zM473 166.442c-15.464 0-28-12.536-28-28s12.536-28 28-28 28 12.536 28 28-12.536 28-28 28zM408.83 78.293c-15.464 0-28-12.536-28-28s12.536-28 28-28 28 12.536 28 28-12.536 28-28 28zM473 284c-15.464 0-28-12.536-28-28s12.536-28 28-28 28 12.536 28 28-12.536 28-28 28z" style="stroke-width:22;stroke-linejoin:round;stroke-miterlimit:10;" fill="none" stroke="#002a4d" stroke-width="22" stroke-linejoin="round" stroke-miterlimit="10" data-original="#000000" opacity="1" class=""></path><path d="M85.537 204.617c.928 16.95 10.87 32.872 27.288 40.653 14.921 7.072 31.659 5.747 44.878-2.069" style="stroke-width:22;stroke-linecap:round;stroke-linejoin:round;stroke-miterlimit:10;" fill="none" stroke="#002a4d" stroke-width="22" stroke-linecap="round" stroke-linejoin="round" stroke-miterlimit="10" data-original="#000000" opacity="1" class=""></path><path d="M79.833 391.256c6.622 27.204 31.133 47.404 60.375 47.404 34.325 0 62.15-27.826 62.15-62.15V120.442c0-26.014-21.088-47.102-47.102-47.102-18.903 0-35.195 11.14-42.695 27.208-15.747-5.74-34.085-2.304-46.718 10.329-10.601 10.601-14.721 25.221-12.383 38.955M26.728 236.783c-9.783 11.297-15.716 26.019-15.716 42.136 0 20.522 9.608 38.788 24.558 50.584" style="stroke-width:22;stroke-linejoin:round;stroke-miterlimit:10;" fill="none" stroke="#002a4d" stroke-width="22" stroke-linejoin="round" stroke-miterlimit="10" data-original="#000000" opacity="1" class=""></path><path d="M45.881 313.616c-17.771 17.771-17.771 46.583 0 64.354s46.583 17.771 64.354 0" style="stroke-width:22;stroke-linecap:round;stroke-linejoin:round;stroke-miterlimit:10;" fill="none" stroke="#002a4d" stroke-width="22" stroke-linecap="round" stroke-linejoin="round" stroke-miterlimit="10" data-original="#000000" opacity="1" class=""></path><path d="M202.358 376.557c0-29.766-24.13-53.895-53.895-53.895" style="stroke-width:22;stroke-linejoin:round;stroke-miterlimit:10;" fill="none" stroke="#002a4d" stroke-width="22" stroke-linejoin="round" stroke-miterlimit="10" data-original="#000000" opacity="1" class=""></path><path d="M155.256 145.545c26.014 0 47.102 21.088 47.102 47.102M83.575 153.96c-25.439-11.964-55.76-1.04-67.723 24.399s-1.04 55.76 24.399 67.723M84.402 274.036c14.207-4.268 24.307-15.69 27.543-29.143M119.591 336.393c17.885 1.174 33.336-12.372 34.511-30.258" style="stroke-width:22;stroke-linecap:round;stroke-linejoin:round;stroke-miterlimit:10;" fill="none" stroke="#002a4d" stroke-width="22" stroke-linecap="round" stroke-linejoin="round" stroke-miterlimit="10" data-original="#000000" opacity="1" class=""></path><path d="M388.864 178.359c-7.375-15.681-21.725-25.842-37.607-28.531 2.338-13.735-1.782-28.349-12.384-38.951-12.633-12.633-30.971-16.069-46.718-10.329-7.5-16.068-23.793-27.208-42.695-27.208-26.014 0-47.102 21.088-47.102 47.102V376.51c0 34.325 27.826 62.15 62.15 62.15 29.242 0 53.753-20.2 60.375-47.404 12.23.475 24.615-3.949 33.952-13.286 13.105-13.105 16.533-32.21 10.31-48.468 14.95-11.796 24.558-30.062 24.558-50.584 0-16.117-5.923-30.829-15.706-42.126 15.37-14.706 20.42-38.121 10.867-58.433z" style="stroke-width:22;stroke-linejoin:round;stroke-miterlimit:10;" fill="none" stroke="#002a4d" stroke-width="22" stroke-linejoin="round" stroke-miterlimit="10" data-original="#000000" opacity="1" class=""></path></g></svg>